<?xml version="1.0" encoding="UTF-8"?>
<svg version="1.1" xmlns="http://www.w3.org/2000/svg" width="512" height="512">
<path d="M0 0 C6.34610133 5.01966212 13.06155805 10.47827834 16.15625 18.1171875 C18.56316175 23.65928558 18.56316175 23.65928558 22.796875 27.76171875 C28.53832708 29.21367556 34.53306823 28.76190085 40.41015625 28.6953125 C67.50412393 28.49552252 91.70878101 43.17621576 110.5234375 61.4375 C111.6276965 62.53250543 112.71540528 63.64420004 113.796875 64.76171875 C117.45238791 63.24480523 119.56005086 61.08099468 122.234375 58.19921875 C137.95234677 42.25178754 163.10613688 29.34183709 185.82983398 28.67236328 C186.84634033 28.68122559 187.86284668 28.69008789 188.91015625 28.69921875 C189.93044922 28.70566406 190.95074219 28.71210937 192.00195312 28.71875 C194.09375659 28.747675 196.18533503 28.80818217 198.27539062 28.8984375 C201.3970757 28.88653025 203.83677809 28.76662877 206.796875 27.76171875 C209.5431623 24.7552203 211.09896751 21.43368006 212.796875 17.76171875 C224.70251527 0.76682025 241.49203173 -9.54025995 261.6484375 -13.84765625 C283.66629779 -16.5794007 304.4660082 -11.92985497 322.234375 1.63671875 C336.91131415 14.32231439 347.37645154 31.25310565 349.796875 50.76171875 C351.23341419 72.32242991 346.89690776 91.63039495 333.296875 108.82421875 C323.93672512 119.48969565 323.93672512 119.48969565 317.44140625 122.12109375 C311.89521363 124.52463186 311.89521363 124.52463186 307.796875 128.76171875 C306.06937041 135.54952098 306.75282434 142.80242067 306.84863281 149.74853516 C306.40580579 175.5285873 291.14781185 199.39377027 273.609375 217.07421875 C272.68125 217.96109375 271.753125 218.84796875 270.796875 219.76171875 C272.31378852 223.41723166 274.47759907 225.52489461 277.359375 228.19921875 C293.30680621 243.91719052 306.21675666 269.07098063 306.88623047 291.79467773 C306.87293701 293.31943726 306.87293701 293.31943726 306.859375 294.875 C306.85292969 295.89529297 306.84648437 296.91558594 306.83984375 297.96679688 C306.81091875 300.05860034 306.75041158 302.15017878 306.66015625 304.24023438 C306.6720635 307.36191945 306.79196498 309.80162184 307.796875 312.76171875 C310.80337345 315.50800605 314.12491369 317.06381126 317.796875 318.76171875 C334.7917735 330.66735902 345.0988537 347.45687548 349.40625 367.61328125 C352.13799445 389.63114154 347.48844872 410.43085195 333.921875 428.19921875 C321.23627936 442.8761579 304.3054881 453.34129529 284.796875 455.76171875 C263.23616384 457.19825794 243.9281988 452.86175151 226.734375 439.26171875 C216.0688981 429.90156887 216.0688981 429.90156887 213.4375 423.40625 C211.03058825 417.86415192 211.03058825 417.86415192 206.796875 413.76171875 C201.05542292 412.30976194 195.06068177 412.76153665 189.18359375 412.828125 C162.08962607 413.02791498 137.88496899 398.34722174 119.0703125 380.0859375 C117.9660535 378.99093207 116.87834472 377.87923746 115.796875 376.76171875 C112.39356798 378.21379641 110.41112375 380.04969677 107.921875 382.76171875 C93.98727618 396.92363566 75.94916076 405.97364731 56.796875 410.76171875 C56.04792969 410.9515332 55.29898438 411.14134766 54.52734375 411.33691406 C49.8801698 412.39832859 45.55222512 412.86599612 40.78125 412.82421875 C39.75773438 412.81777344 38.73421875 412.81132812 37.6796875 412.8046875 C35.5748665 412.77581838 33.4702633 412.71542709 31.3671875 412.625 C28.23099779 412.63690958 25.7726914 412.75780844 22.796875 413.76171875 C20.04569003 416.76673639 18.49294343 420.08678479 16.796875 423.76171875 C4.89123473 440.75661725 -11.89828173 451.06369745 -32.0546875 455.37109375 C-54.07254779 458.1028382 -74.8722582 453.45329247 -92.640625 439.88671875 C-107.31756415 427.20112311 -117.78270154 410.27033185 -120.203125 390.76171875 C-121.63966419 369.20100759 -117.30315776 349.89304255 -103.703125 332.69921875 C-94.34297512 322.03374185 -94.34297512 322.03374185 -87.84765625 319.40234375 C-82.30146363 316.99880564 -82.30146363 316.99880564 -78.203125 312.76171875 C-76.47531741 305.97272595 -77.15575149 298.71383287 -77.25048828 291.76611328 C-76.84057949 265.7643733 -60.81089111 240.87538228 -42.890625 223.37890625 C-42.33375 222.84523438 -41.776875 222.3115625 -41.203125 221.76171875 C-42.65520266 218.35841173 -44.49110302 216.3759675 -47.203125 213.88671875 C-63.51432528 197.83733549 -76.61007562 172.8913702 -77.29248047 149.72875977 C-77.28361816 148.71225342 -77.27475586 147.69574707 -77.265625 146.6484375 C-77.25917969 145.62814453 -77.25273438 144.60785156 -77.24609375 143.55664062 C-77.21716875 141.46483716 -77.15666158 139.37325872 -77.06640625 137.28320312 C-77.0783135 134.16151805 -77.19821498 131.72181566 -78.203125 128.76171875 C-81.20962345 126.01543145 -84.53116369 124.45962624 -88.203125 122.76171875 C-105.1980235 110.85607848 -115.5051037 94.06656202 -119.8125 73.91015625 C-122.54424445 51.89229596 -117.89469872 31.09258555 -104.328125 13.32421875 C-77.59898772 -17.60077148 -33.58896523 -23.4713135 0 0 Z M16.21484375 126.76171875 C9.98073006 135.49857881 7.50355437 144.00673668 8.796875 154.76171875 C9.86388815 158.55862268 11.206437 162.15483256 12.796875 165.76171875 C15.85852018 166.08005828 15.85852018 166.08005828 17.86601257 164.05334473 C18.6587709 163.25392456 19.45152924 162.45450439 20.26831055 161.63085938 C21.16901779 160.72992554 22.06972504 159.8289917 22.99772644 158.90075684 C23.97650979 157.90665254 24.95512834 156.91238598 25.93359375 155.91796875 C26.93756212 154.90840578 27.94219446 153.8995027 28.94746399 152.89123535 C31.59270858 150.23453133 34.22882144 147.56894176 36.86315918 144.90142822 C39.55242401 142.18148621 42.25019171 139.47000732 44.94726562 136.7578125 C50.2388472 131.43404741 55.52081428 126.10087074 60.796875 120.76171875 C55.76864918 115.53969119 49.57764465 114.55975529 42.484375 114.26171875 C32.19952925 114.51462479 22.63793821 118.6416586 16.21484375 126.76171875 Z M169.796875 118.76171875 C169.47853547 121.82336393 169.47853547 121.82336393 171.50524902 123.83085632 C172.30466919 124.62361465 173.10408936 125.41637299 173.92773438 126.2331543 C174.82866821 127.13386154 175.72960205 128.03456879 176.65783691 128.96257019 C177.65194121 129.94135354 178.64620777 130.91997209 179.640625 131.8984375 C180.65018797 132.90240587 181.65909105 133.90703821 182.6673584 134.91230774 C185.32406242 137.55755233 187.98965199 140.19366519 190.65716553 142.82800293 C193.37710754 145.51726776 196.08858643 148.21503546 198.80078125 150.91210938 C204.12454634 156.20369095 209.45772301 161.48565803 214.796875 166.76171875 C219.8876085 161.86767856 220.98227154 155.81056022 221.234375 148.88671875 C220.95555155 139.35823051 217.54108256 130.5806958 210.796875 123.76171875 C202.492382 116.98254079 194.85028313 114.17793319 184.140625 114.390625 C179.00150939 114.96097077 174.49098078 116.65454501 169.796875 118.76171875 Z M111.81002808 175.50805664 C110.99728424 176.3252417 110.18454041 177.14242676 109.34716797 177.984375 C108.42636444 178.90532959 107.50556091 179.82628418 106.55685425 180.77514648 C105.55081697 181.79139829 104.54488897 182.8077583 103.5390625 183.82421875 C102.5110255 184.85598464 101.48254695 185.88731075 100.4536438 186.91821289 C97.74322395 189.6362789 95.03886275 192.360297 92.33569336 195.08557129 C89.57766983 197.86403212 86.81399503 200.63685884 84.05078125 203.41015625 C78.62724575 208.85515898 73.21009445 214.30645802 67.796875 219.76171875 C69.30372468 223.29410898 71.35054112 225.55793535 74.06298828 228.25488281 C74.94375031 229.13549377 75.82451233 230.01610474 76.73196411 230.92340088 C77.69359851 231.87482306 78.6553422 232.82613478 79.6171875 233.77734375 C80.60125607 234.75768004 81.58488242 235.73846043 82.56808472 236.71966553 C85.15130214 239.29526342 87.74047012 241.86479732 90.33093262 244.43310547 C92.9755512 247.05722942 95.6144851 249.68705646 98.25390625 252.31640625 C103.42935572 257.47043545 108.61110622 262.61807032 113.796875 267.76171875 C117.32926523 266.25486907 119.5930916 264.20805263 122.29003906 261.49560547 C123.17065002 260.61484344 124.05126099 259.73408142 124.95855713 258.82662964 C125.90997931 257.86499524 126.86129103 256.90325155 127.8125 255.94140625 C128.79283629 254.95733768 129.77361668 253.97371133 130.75482178 252.99050903 C133.33041967 250.40729161 135.89995357 247.81812363 138.46826172 245.22766113 C141.09238567 242.58304255 143.72221271 239.94410865 146.3515625 237.3046875 C151.5055917 232.12923803 156.65322657 226.94748753 161.796875 221.76171875 C160.29171633 218.24281069 158.25566758 215.9672791 155.5625 213.26855469 C154.68819336 212.38794373 153.81388672 211.50733276 152.91308594 210.60003662 C151.95793705 209.64846655 151.00252716 208.69715839 150.046875 207.74609375 C149.06774102 206.76561216 148.08890407 205.78483388 147.11035156 204.80377197 C145.06248071 202.75295716 143.01104716 200.7057924 140.95703125 198.66113281 C138.32047485 196.03600067 135.69303855 193.4019518 133.06817627 190.7651329 C131.05067879 188.74042285 129.02846001 186.72048267 127.00476074 184.70197296 C126.03362062 183.73216944 125.06397072 182.76087133 124.0958252 181.78807831 C122.74579666 180.43299139 121.38869527 179.08496189 120.03125 177.73730469 C119.26006836 176.96771423 118.48888672 176.19812378 117.69433594 175.4052124 C115.03946083 173.10568133 114.44360428 173.19327645 111.81002808 175.50805664 Z M13.796875 274.76171875 C13.1459491 276.00907442 12.50135831 277.25973707 11.859375 278.51171875 C11.31990234 279.55585938 11.31990234 279.55585938 10.76953125 280.62109375 C7.37949545 288.08189542 7.85388751 296.87168958 10.421875 304.51171875 C14.68947113 314.84614144 21.40812528 321.03791877 31.546875 325.63671875 C41.24784493 328.85751791 50.74112591 326.82682455 59.796875 322.76171875 C60.11446712 319.70140267 60.11446712 319.70140267 58.0952301 317.69258118 C56.90062416 316.50344368 56.90062416 316.50344368 55.68188477 315.2902832 C54.78417862 314.38957596 53.88647247 313.48886871 52.96156311 312.56086731 C51.97070131 311.58200982 50.97960164 310.60339306 49.98828125 309.625 C48.98118415 308.62095961 47.97467596 307.61632821 46.96873474 306.61112976 C44.85892348 304.50592334 42.74429268 302.40572733 40.62573242 300.30932617 C37.90386892 297.61578146 35.19079189 294.9136005 32.48082066 292.2080965 C30.40275925 290.13418211 28.32188127 288.06311496 26.23994255 285.99309349 C25.23829049 284.99715641 24.23711712 284.00073766 23.23642159 283.00383949 C21.84065489 281.61491144 20.44105566 280.22983794 19.04125977 278.8449707 C18.24406021 278.05459915 17.44686066 277.2642276 16.62550354 276.4499054 C15.08920616 274.64866405 15.08920616 274.64866405 13.796875 274.76171875 Z M214.796875 274.76171875 C199.616875 289.94171875 184.436875 305.12171875 168.796875 320.76171875 C173.98881295 325.9536567 179.89057479 326.95840782 187.109375 327.26171875 C196.45375819 327.03193884 205.31043186 323.55704014 211.796875 316.76171875 C218.38122289 308.43780241 221.41998904 300.49689444 221.16015625 289.84375 C220.5733194 284.8651019 219.08942587 280.22131588 216.796875 275.76171875 C216.136875 275.43171875 215.476875 275.10171875 214.796875 274.76171875 Z " fill="#EE3C2F" transform="translate(141.203125,35.23828125)"/>
<path d="M0 0 C6.34610133 5.01966212 13.06155805 10.47827834 16.15625 18.1171875 C18.56316175 23.65928558 18.56316175 23.65928558 22.796875 27.76171875 C28.53832708 29.21367556 34.53306823 28.76190085 40.41015625 28.6953125 C67.62567241 28.49462623 91.88588793 43.29129848 110.74609375 61.66015625 C112.10960322 63.01413069 113.45588387 64.38543838 114.796875 65.76171875 C113.2282285 69.51397721 110.89705482 71.93919648 108.05932617 74.8215332 C107.57938705 75.31140213 107.09944794 75.80127106 106.60496521 76.3059845 C105.02215132 77.91791211 103.43173312 79.52203725 101.83984375 81.125 C100.73366431 82.24268738 99.62748862 83.36037847 98.52131653 84.47807312 C96.20420026 86.81616846 93.88248578 89.14959686 91.55834961 91.48071289 C88.57870409 94.47135905 85.61807898 97.48012052 82.661479 100.49352741 C80.38527746 102.80692552 78.09581972 105.10684728 75.80248451 107.40324974 C74.70466313 108.50713158 73.61185475 109.61602222 72.5241909 110.72991371 C71.00409275 112.28404117 69.46627985 113.81821305 67.92260742 115.34887695 C66.61594368 116.66647758 66.61594368 116.66647758 65.28288269 118.01069641 C62.796875 119.76171875 62.796875 119.76171875 60.10151672 119.5846405 C57.98106193 118.82748664 55.88421919 118.04312548 53.796875 117.19921875 C44.19421332 113.99833152 35.5552633 115.22639209 26.453125 119.27734375 C18.21399793 123.88156182 12.8922378 131.29003544 10.26953125 140.3203125 C8.28887125 150.5509943 10.06319699 159.79536722 15.58013916 168.61134338 C17.70992103 171.63814172 19.91492178 174.12723213 22.53027344 176.73803711 C23.21413116 177.42474236 23.21413116 177.42474236 23.9118042 178.12532043 C25.40512712 179.62231701 26.90547583 181.11203911 28.40625 182.6015625 C29.45790557 183.65202355 30.50918908 184.70285719 31.56011963 185.75404358 C33.75932899 187.9516936 35.96183963 190.1459603 38.16699219 192.33764648 C40.97373305 195.12745117 43.77390022 197.92373918 46.57180405 200.72240353 C48.7421353 202.89246085 50.91507874 205.05988679 53.08887482 207.22647285 C54.12113982 208.25558613 55.15282705 209.28527932 56.1838913 210.31559563 C61.25777707 215.38177615 66.37420374 220.33427486 71.81719971 225.00541687 C75.8227962 228.55904845 79.55483321 232.39865985 83.328125 236.1953125 C84.64290833 237.51221825 84.64290833 237.51221825 85.98425293 238.85572815 C88.75750296 241.63453371 91.52723782 244.41681272 94.296875 247.19921875 C96.18698305 249.0949174 98.07789018 250.98981658 99.96875 252.88476562 C104.58078504 257.50777064 109.18994641 262.13362532 113.796875 266.76171875 C117.32926523 265.25486907 119.5930916 263.20805263 122.29003906 260.49560547 C123.17065002 259.61484344 124.05126099 258.73408142 124.95855713 257.82662964 C125.90997931 256.86499524 126.86129103 255.90325155 127.8125 254.94140625 C128.79283629 253.95733768 129.77361668 252.97371133 130.75482178 251.99050903 C133.33041967 249.40729161 135.89995357 246.81812363 138.46826172 244.22766113 C141.09238567 241.58304255 143.72221271 238.94410865 146.3515625 236.3046875 C151.5055917 231.12923803 156.65322657 225.94748753 161.796875 220.76171875 C165.5188043 222.31884318 167.89292976 224.60424817 170.7331543 227.43920898 C171.21005707 227.91260712 171.68695984 228.38600525 172.17831421 228.87374878 C173.74763075 230.4342884 175.30954834 232.00199959 176.87109375 233.5703125 C177.96128091 234.65915207 179.05176478 235.74769463 180.14253235 236.83595276 C182.42454241 239.11501722 184.70290308 241.39765262 186.97875977 243.68286133 C189.89750094 246.6130102 192.82514663 249.53407128 195.75557232 252.45252895 C198.00765347 254.69738788 200.25495522 256.94698264 202.50083351 259.19804573 C203.5786638 260.2772108 204.65798346 261.35489044 205.73880577 262.43105888 C207.24702029 263.9342008 208.74868555 265.44359356 210.2487793 266.95483398 C211.1049736 267.81261948 211.96116791 268.67040497 212.8433075 269.55418396 C214.796875 271.76171875 214.796875 271.76171875 215.796875 274.76171875 C209.81000794 280.77186643 203.82036238 286.77922599 197.82725525 292.78315067 C195.04381121 295.57178939 192.26129504 298.36134039 189.48095703 301.15307617 C186.79235566 303.85262878 184.10124202 306.54965422 181.40844727 309.24502373 C180.38704565 310.26825772 179.36651701 311.29236398 178.34692383 312.31739998 C173.31672256 317.37335657 168.24703361 322.31158873 162.83084106 326.95582581 C158.51653617 330.78635814 154.49166873 334.92515977 150.41796875 339.0078125 C149.43740619 339.98769928 148.45669541 340.96743776 147.47584534 341.94703674 C145.43287287 343.98854515 143.39169331 346.03182441 141.35180664 348.07641602 C138.75767634 350.67624279 136.15908066 353.27155248 133.5591116 355.8655386 C131.53679675 357.88421271 129.5169031 359.90529608 127.49769783 361.92708015 C126.08171254 363.34404199 124.66373985 364.75901692 123.24571228 366.17393494 C118.74137607 370.6945056 114.36329554 375.26099529 110.22158813 380.11758423 C94.4446589 398.32433292 70.47438663 409.66265111 46.796875 412.76171875 C41.46490032 413.00136725 36.12152692 413.07197397 30.79101562 412.78271484 C27.83831247 412.74140089 25.59507471 412.80432716 22.796875 413.76171875 C20.08833536 416.7770509 18.5103007 420.11543296 16.796875 423.76171875 C4.89123473 440.75661725 -11.89828173 451.06369745 -32.0546875 455.37109375 C-54.07254779 458.1028382 -74.8722582 453.45329247 -92.640625 439.88671875 C-107.31756415 427.20112311 -117.78270154 410.27033185 -120.203125 390.76171875 C-121.63966419 369.20100759 -117.30315776 349.89304255 -103.703125 332.69921875 C-94.34297512 322.03374185 -94.34297512 322.03374185 -87.84765625 319.40234375 C-82.30146363 316.99880564 -82.30146363 316.99880564 -78.203125 312.76171875 C-76.47531741 305.97272595 -77.15575149 298.71383287 -77.25048828 291.76611328 C-76.84057949 265.7643733 -60.81089111 240.87538228 -42.890625 223.37890625 C-42.33375 222.84523438 -41.776875 222.3115625 -41.203125 221.76171875 C-42.65520266 218.35841173 -44.49110302 216.3759675 -47.203125 213.88671875 C-63.51432528 197.83733549 -76.61007562 172.8913702 -77.29248047 149.72875977 C-77.28361816 148.71225342 -77.27475586 147.69574707 -77.265625 146.6484375 C-77.25917969 145.62814453 -77.25273438 144.60785156 -77.24609375 143.55664062 C-77.21716875 141.46483716 -77.15666158 139.37325872 -77.06640625 137.28320312 C-77.0783135 134.16151805 -77.19821498 131.72181566 -78.203125 128.76171875 C-81.20962345 126.01543145 -84.53116369 124.45962624 -88.203125 122.76171875 C-105.1980235 110.85607848 -115.5051037 94.06656202 -119.8125 73.91015625 C-122.54424445 51.89229596 -117.89469872 31.09258555 -104.328125 13.32421875 C-77.59898772 -17.60077148 -33.58896523 -23.4713135 0 0 Z M13.796875 274.76171875 C13.1459491 276.00907442 12.50135831 277.25973707 11.859375 278.51171875 C11.31990234 279.55585938 11.31990234 279.55585938 10.76953125 280.62109375 C7.37949545 288.08189542 7.85388751 296.87168958 10.421875 304.51171875 C14.68947113 314.84614144 21.40812528 321.03791877 31.546875 325.63671875 C41.24784493 328.85751791 50.74112591 326.82682455 59.796875 322.76171875 C60.11446712 319.70140267 60.11446712 319.70140267 58.0952301 317.69258118 C56.90062416 316.50344368 56.90062416 316.50344368 55.68188477 315.2902832 C54.78417862 314.38957596 53.88647247 313.48886871 52.96156311 312.56086731 C51.97070131 311.58200982 50.97960164 310.60339306 49.98828125 309.625 C48.98118415 308.62095961 47.97467596 307.61632821 46.96873474 306.61112976 C44.85892348 304.50592334 42.74429268 302.40572733 40.62573242 300.30932617 C37.90386892 297.61578146 35.19079189 294.9136005 32.48082066 292.2080965 C30.40275925 290.13418211 28.32188127 288.06311496 26.23994255 285.99309349 C25.23829049 284.99715641 24.23711712 284.00073766 23.23642159 283.00383949 C21.84065489 281.61491144 20.44105566 280.22983794 19.04125977 278.8449707 C18.24406021 278.05459915 17.44686066 277.2642276 16.62550354 276.4499054 C15.08920616 274.64866405 15.08920616 274.64866405 13.796875 274.76171875 Z " fill="#25A4DA" transform="translate(141.203125,35.23828125)"/>
<path d="M0 0 C6.34610133 5.01966212 13.06155805 10.47827834 16.15625 18.1171875 C18.56316175 23.65928558 18.56316175 23.65928558 22.796875 27.76171875 C28.53832708 29.21367556 34.53306823 28.76190085 40.41015625 28.6953125 C67.62567241 28.49462623 91.88588793 43.29129848 110.74609375 61.66015625 C112.10960322 63.01413069 113.45588387 64.38543838 114.796875 65.76171875 C113.2282285 69.51397721 110.89705482 71.93919648 108.05932617 74.8215332 C107.57938705 75.31140213 107.09944794 75.80127106 106.60496521 76.3059845 C105.02215132 77.91791211 103.43173312 79.52203725 101.83984375 81.125 C100.73366431 82.24268738 99.62748862 83.36037847 98.52131653 84.47807312 C96.20420026 86.81616846 93.88248578 89.14959686 91.55834961 91.48071289 C88.57870409 94.47135905 85.61807898 97.48012052 82.661479 100.49352741 C80.38527746 102.80692552 78.09581972 105.10684728 75.80248451 107.40324974 C74.70466313 108.50713158 73.61185475 109.61602222 72.5241909 110.72991371 C71.00409275 112.28404117 69.46627985 113.81821305 67.92260742 115.34887695 C66.61594368 116.66647758 66.61594368 116.66647758 65.28288269 118.01069641 C62.796875 119.76171875 62.796875 119.76171875 60.10151672 119.5846405 C57.98106193 118.82748664 55.88421919 118.04312548 53.796875 117.19921875 C44.19421332 113.99833152 35.5552633 115.22639209 26.453125 119.27734375 C18.21399793 123.88156182 12.8922378 131.29003544 10.26953125 140.3203125 C8.28887125 150.5509943 10.06319699 159.79536722 15.58013916 168.61134338 C17.70992103 171.63814172 19.91492178 174.12723213 22.53027344 176.73803711 C23.21413116 177.42474236 23.21413116 177.42474236 23.9118042 178.12532043 C25.40512712 179.62231701 26.90547583 181.11203911 28.40625 182.6015625 C29.45790557 183.65202355 30.50918908 184.70285719 31.56011963 185.75404358 C33.75932899 187.9516936 35.96183963 190.1459603 38.16699219 192.33764648 C40.97373305 195.12745117 43.77390022 197.92373918 46.57180405 200.72240353 C48.7421353 202.89246085 50.91507874 205.05988679 53.08887482 207.22647285 C54.12113982 208.25558613 55.15282705 209.28527932 56.1838913 210.31559563 C61.25892378 215.38292112 66.37523377 220.33974496 71.81942749 225.01210022 C75.80341945 228.53708185 79.53019163 232.33210839 83.29296875 236.08984375 C84.16711929 236.96066589 85.04126984 237.83148804 85.94190979 238.72869873 C87.77434771 240.55610414 89.60546012 242.38483959 91.43530273 244.21484375 C94.24507748 247.02241283 97.06277748 249.82186599 99.88085938 252.62109375 C101.664551 254.40185458 103.44777114 256.18308783 105.23046875 257.96484375 C106.0751622 258.80235168 106.91985565 259.63985962 107.79014587 260.50274658 C108.95254539 261.66976105 108.95254539 261.66976105 110.13842773 262.86035156 C110.82267319 263.543172 111.50691864 264.22599243 112.2118988 264.92950439 C113.796875 266.76171875 113.796875 266.76171875 114.796875 269.76171875 C108.20499957 276.39989716 101.6077645 283.03268811 95.00358868 289.65862942 C91.93730621 292.73535724 88.87291525 295.8139212 85.81274414 298.89672852 C82.86046114 301.87071297 79.90334537 304.83981134 76.94278908 307.80555916 C75.81310689 308.93894195 74.68518897 310.07408603 73.55905724 311.21099663 C71.98367748 312.80085531 70.40218918 314.384384 68.8190918 315.96655273 C67.91974411 316.87034164 67.02039642 317.77413055 66.09379578 318.70530701 C63.796875 320.76171875 63.796875 320.76171875 60.796875 321.76171875 C54.78672732 315.77485169 48.77936776 309.78520613 42.77544308 303.792099 C39.98680436 301.00865496 37.19725336 298.22613879 34.40551758 295.44580078 C31.70596497 292.75719941 29.00893953 290.06608577 26.31357002 287.37329102 C25.29033603 286.3518894 24.26622977 285.33136076 23.24119377 284.31176758 C18.18523718 279.28156631 13.24700502 274.21187736 8.60276794 268.79568481 C4.77223561 264.48137992 0.63343398 260.45651248 -3.44921875 256.3828125 C-4.42910553 255.40224994 -5.40884401 254.42153916 -6.38844299 253.44068909 C-8.4299514 251.39771662 -10.47323066 249.35653706 -12.51782227 247.31665039 C-15.11764904 244.72252009 -17.71295873 242.12392441 -20.30694485 239.52395535 C-22.32561896 237.5016405 -24.34670233 235.48174685 -26.3684864 233.46254158 C-27.78544824 232.04655629 -29.20042317 230.6285836 -30.61534119 229.21055603 C-35.13591185 224.70621982 -39.70240154 220.32813929 -44.55899048 216.18643188 C-61.6246489 201.39830634 -71.43263747 180.45974268 -76.203125 158.76171875 C-76.40292969 157.87742188 -76.60273437 156.993125 -76.80859375 156.08203125 C-77.17130381 153.02952083 -77.21286394 150.2050555 -77.16796875 147.13671875 C-77.16474609 146.1003125 -77.16152344 145.06390625 -77.15820312 143.99609375 C-77.14648178 141.83936615 -77.09956944 139.68254415 -77.01757812 137.52734375 C-77.04343675 134.3288311 -77.18504308 131.79879002 -78.203125 128.76171875 C-81.2044753 125.99467589 -84.51738623 124.45135918 -88.203125 122.76171875 C-105.1980235 110.85607848 -115.5051037 94.06656202 -119.8125 73.91015625 C-122.54424445 51.89229596 -117.89469872 31.09258555 -104.328125 13.32421875 C-77.59898772 -17.60077148 -33.58896523 -23.4713135 0 0 Z " fill="#7EBE61" transform="translate(141.203125,35.23828125)"/>
<path d="M0 0 C14.67693915 12.68559564 25.14207654 29.6163869 27.5625 49.125 C28.99903919 70.68571116 24.66253276 89.9936762 11.0625 107.1875 C1.70235012 117.8529769 1.70235012 117.8529769 -4.79296875 120.484375 C-10.33916137 122.88791311 -10.33916137 122.88791311 -14.4375 127.125 C-16.16500459 133.91280223 -15.48155066 141.16570192 -15.38574219 148.11181641 C-15.85063164 175.17627705 -32.40406361 199.68568808 -51.07421875 217.83203125 C-51.52410156 218.25871094 -51.97398437 218.68539062 -52.4375 219.125 C-56.18975846 217.5563535 -58.61497773 215.22517982 -61.49731445 212.38745117 C-61.98718338 211.90751205 -62.47705231 211.42757294 -62.98176575 210.93309021 C-64.59369336 209.35027632 -66.1978185 207.75985812 -67.80078125 206.16796875 C-68.91846863 205.06178931 -70.03615972 203.95561362 -71.15385437 202.84944153 C-73.49194971 200.53232526 -75.82537811 198.21061078 -78.15649414 195.88647461 C-81.1471403 192.90682909 -84.15590177 189.94620398 -87.16930866 186.989604 C-89.48270677 184.71340246 -91.78262853 182.42394472 -94.07903099 180.13060951 C-95.18291283 179.03278813 -96.29180347 177.93997975 -97.40569496 176.8523159 C-98.95982242 175.33221775 -100.4939943 173.79440485 -102.0246582 172.25073242 C-103.34225883 170.94406868 -103.34225883 170.94406868 -104.68647766 169.61100769 C-106.4375 167.125 -106.4375 167.125 -106.26042175 164.43183899 C-105.49746434 162.29309384 -104.71622452 160.17165714 -103.875 158.0625 C-100.62101773 148.34887965 -102.06476824 139.21567919 -106.4375 130.125 C-110.44815136 122.45757828 -118.01172604 117.27604442 -126.1640625 114.6015625 C-136.30174876 112.4764805 -146.39430778 114.10886759 -155.4375 119.125 C-158.35335123 121.37915871 -158.35335123 121.37915871 -161.1484375 124.11328125 C-161.69019623 124.62560806 -162.23195496 125.13793488 -162.79013062 125.66578674 C-164.68638524 127.47175834 -166.5638855 129.29555146 -168.4375 131.125 C-169.53390808 132.19551605 -169.53390808 132.19551605 -170.65246582 133.28765869 C-175.62648467 138.16029115 -180.56543851 143.06716392 -185.48876953 147.9909668 C-188.08737138 150.58735015 -190.6939218 153.17558259 -193.30078125 155.76367188 C-194.96402931 157.4239908 -196.62680731 159.0847808 -198.2890625 160.74609375 C-199.45146957 161.89772255 -199.45146957 161.89772255 -200.63735962 163.07261658 C-201.7152626 164.15513451 -201.7152626 164.15513451 -202.81494141 165.25952148 C-203.44413483 165.88728989 -204.07332825 166.51505829 -204.72158813 167.16184998 C-206.52827441 169.10774236 -206.52827441 169.10774236 -207.88444519 171.57293701 C-209.61246469 174.41251136 -211.55305099 176.4808 -213.90893555 178.82348633 C-215.25999641 180.1743206 -215.25999641 180.1743206 -216.63835144 181.55244446 C-217.61686661 182.52074846 -218.5954916 183.4889415 -219.57421875 184.45703125 C-220.5792791 185.45835781 -221.58389609 186.46012956 -222.58808899 187.46232605 C-225.22224915 190.08887861 -227.86236145 192.70936723 -230.50378418 195.32861328 C-233.20212674 198.00643535 -235.89476141 200.68998352 -238.58789062 203.37304688 C-243.86554269 208.62929975 -249.14949974 213.87915577 -254.4375 219.125 C-258.1594293 217.56787557 -260.53355476 215.28247058 -263.3737793 212.44750977 C-263.85068207 211.97411163 -264.32758484 211.5007135 -264.81893921 211.01296997 C-266.38825575 209.45243035 -267.95017334 207.88471916 -269.51171875 206.31640625 C-270.60190591 205.22756668 -271.69238978 204.13902412 -272.78315735 203.05076599 C-275.06516741 200.77170153 -277.34352808 198.48906613 -279.61938477 196.20385742 C-282.53812594 193.27370855 -285.46577163 190.35264747 -288.39619732 187.4341898 C-290.64827847 185.18933087 -292.89558022 182.93973611 -295.14145851 180.68867302 C-296.2192888 179.60950795 -297.29860846 178.53182831 -298.37943077 177.45565987 C-299.88764529 175.95251795 -301.38931055 174.44312519 -302.8894043 172.93188477 C-304.17369576 171.64520653 -304.17369576 171.64520653 -305.4839325 170.33253479 C-307.4375 168.125 -307.4375 168.125 -308.4375 165.125 C-302.45063294 159.11485232 -296.46098738 153.10749276 -290.46788025 147.10356808 C-287.68443621 144.31492936 -284.90192004 141.52537836 -282.12158203 138.73364258 C-279.43298066 136.03408997 -276.74186702 133.33706453 -274.04907227 130.64169502 C-273.02767065 129.61846103 -272.00714201 128.59435477 -270.98754883 127.56931877 C-265.95734756 122.51336218 -260.88765861 117.57513002 -255.47146606 112.93089294 C-251.15716117 109.10036061 -247.13229373 104.96155898 -243.05859375 100.87890625 C-242.07803119 99.89901947 -241.09732041 98.91928099 -240.11647034 97.93968201 C-238.07349787 95.8981736 -236.03231831 93.85489434 -233.99243164 91.81030273 C-231.39830134 89.21047596 -228.79970566 86.61516627 -226.1997366 84.02118015 C-224.17742175 82.00250604 -222.1575281 79.98142267 -220.13832283 77.9596386 C-218.72233754 76.54267676 -217.30436485 75.12770183 -215.88633728 73.71278381 C-211.40435138 69.21464401 -207.04238074 64.67177541 -202.91371155 59.84580994 C-187.49998748 41.8781348 -162.79946385 30.01090095 -139.4375 27.125 C-137.40051693 27.06498746 -135.36200822 27.04473374 -133.32421875 27.0625 C-132.30392578 27.06894531 -131.28363281 27.07539062 -130.23242188 27.08203125 C-128.14061841 27.11095625 -126.04903997 27.17146342 -123.95898438 27.26171875 C-120.8372993 27.2498115 -118.39759691 27.12991002 -115.4375 26.125 C-112.6912127 23.11850155 -111.13540749 19.79696131 -109.4375 16.125 C-97.53185973 -0.8698985 -80.74234327 -11.1769787 -60.5859375 -15.484375 C-38.56807721 -18.21611945 -17.7683668 -13.56657372 0 0 Z " fill="#FCBA29" transform="translate(463.4375,36.875)"/>
<path d="M0 0 C0.99 0.99 1.98 1.98 3 3 C-1.8025478 8.77817129 -6.95606304 14.10167775 -12.2734375 19.40625 C-13.15601227 20.28978149 -14.03858704 21.17331299 -14.94790649 22.08361816 C-17.28063292 24.41719483 -19.61576341 26.7483335 -21.95172119 29.07867432 C-23.37235878 30.4973624 -24.79103541 31.91798047 -26.20898438 33.33935547 C-28.956942 36.09352803 -31.70838274 38.8441726 -34.4609375 41.59375 C-35.29764984 42.43248657 -36.13436218 43.27122314 -36.99642944 44.13537598 C-40.55991994 47.68484104 -44.13195637 51.16893241 -47.94750977 54.44750977 C-53.00171716 58.7990985 -57.67024534 63.52708465 -62.37890625 68.24609375 C-63.35946881 69.22598053 -64.34017959 70.20571901 -65.32102966 71.18531799 C-67.36400213 73.2268264 -69.40518169 75.27010566 -71.44506836 77.31469727 C-74.03919866 79.91452404 -76.63779434 82.50983373 -79.2377634 85.10381985 C-81.26007825 87.12249396 -83.2799719 89.14357733 -85.29917717 91.1653614 C-86.71516246 92.58232324 -88.13313515 93.99729817 -89.55116272 95.41221619 C-94.05549893 99.93278685 -98.43357946 104.49927654 -102.57528687 109.35586548 C-118.3522161 127.56261417 -142.32248837 138.90093236 -166 142 C-171.33197468 142.2396485 -176.67534808 142.31025522 -182.00585938 142.02099609 C-184.95856253 141.97968214 -187.20180029 142.04260841 -190 143 C-192.70853964 146.01533215 -194.2865743 149.35371421 -196 153 C-207.90564027 169.9948985 -224.69515673 180.3019787 -244.8515625 184.609375 C-266.86942279 187.34111945 -287.6691332 182.69157372 -305.4375 169.125 C-320.14641867 156.41176376 -330.52686835 139.52743532 -333 120 C-333.06460219 117.87588004 -333.08611079 115.74997095 -333.0625 113.625 C-333.05347656 112.56539063 -333.04445313 111.50578125 -333.03515625 110.4140625 C-333.01775391 109.21910156 -333.01775391 109.21910156 -333 108 C-332.67 108 -332.34 108 -332 108 C-331.85304688 109.12535156 -331.70609375 110.25070312 -331.5546875 111.41015625 C-329.34914659 127.00269837 -325.17148877 139.60600089 -315 152 C-314.46890625 152.70511719 -313.9378125 153.41023437 -313.390625 154.13671875 C-305.5120864 164.06289733 -293.62471469 170.48891669 -282 175 C-281.12859375 175.3403125 -280.2571875 175.680625 -279.359375 176.03125 C-261.01170518 181.825251 -240.38878062 178.69937137 -223.65185547 170.11083984 C-218.71992344 167.48325913 -214.16754651 164.75430877 -210 161 C-209.20335937 160.29488281 -208.40671875 159.58976563 -207.5859375 158.86328125 C-200.44739046 152.16684967 -195.36942063 144.73884125 -191 136 C-190.43796875 136.02320313 -189.8759375 136.04640625 -189.296875 136.0703125 C-154.17164043 136.82453533 -126.47984714 125.02101269 -101.14770889 101.06190491 C-93.20346058 93.43504046 -85.46724492 85.58971051 -77.69089866 77.79229259 C-74.95280923 75.04787283 -72.21181151 72.30636057 -69.47114563 69.56451416 C-64.30237069 64.39265405 -59.13614593 59.21825456 -53.97087556 54.0428946 C-48.08152282 48.14229241 -42.18926717 42.24459256 -36.29678857 36.34711218 C-24.19466895 24.23459201 -12.09612622 12.11850541 0 0 Z " fill="#2095C7" transform="translate(354,306)"/>
<path d="M0 0 C14.74276526 12.74249058 25.03363329 29.57896772 27.5625 49.125 C27.62555204 50.91567806 27.64921114 52.70837579 27.625 54.5 C27.61597656 55.37398438 27.60695313 56.24796875 27.59765625 57.1484375 C27.58025391 58.12683594 27.58025391 58.12683594 27.5625 59.125 C27.2325 59.125 26.9025 59.125 26.5625 59.125 C26.32466797 57.61873047 26.32466797 57.61873047 26.08203125 56.08203125 C22.76854796 36.19624078 14.64221933 17.80892636 -2.07348633 5.55224609 C-8.18583681 1.26016017 -14.46177891 -2.19127138 -21.4375 -4.875 C-22.33855469 -5.266875 -23.23960937 -5.65875 -24.16796875 -6.0625 C-40.95955446 -12.45084436 -62.11721315 -10.36535034 -78.32421875 -3.21484375 C-87.39811522 1.09981682 -94.46885418 6.96157836 -101.4375 14.125 C-102.04078125 14.73085938 -102.6440625 15.33671875 -103.265625 15.9609375 C-105.7219557 18.61118905 -107.32668581 20.87060916 -108.78515625 24.21875 C-110.39275457 27.73819799 -111.7256091 30.35045816 -114.4375 33.125 C-119.88657719 34.23129213 -124.93219647 33.64467467 -130.4375 33.125 C-167.92348373 33.125 -195.21992199 58.80115251 -219.95418072 83.52556992 C-222.5534464 86.12616269 -225.1501924 88.72926294 -227.74660134 91.33270741 C-230.48469077 94.07712717 -233.22568849 96.81863943 -235.96635437 99.56048584 C-241.13512931 104.73234595 -246.30135407 109.90674544 -251.46662444 115.0821054 C-257.35597718 120.98270759 -263.24823283 126.88040744 -269.14071143 132.77788782 C-281.24283105 144.89040799 -293.34137378 157.00649459 -305.4375 169.125 C-306.4275 168.135 -307.4175 167.145 -308.4375 166.125 C-303.6349522 160.34682871 -298.48143696 155.02332225 -293.1640625 149.71875 C-292.28148773 148.83521851 -291.39891296 147.95168701 -290.48959351 147.04138184 C-288.15686708 144.70780517 -285.82173659 142.3766665 -283.48577881 140.04632568 C-282.06514122 138.6276376 -280.64646459 137.20701953 -279.22851562 135.78564453 C-276.480558 133.03147197 -273.72911726 130.2808274 -270.9765625 127.53125 C-270.13985016 126.69251343 -269.30313782 125.85377686 -268.44107056 124.98962402 C-264.87758006 121.44015896 -261.30554363 117.95606759 -257.48999023 114.67749023 C-252.43578284 110.3259015 -247.76725466 105.59791535 -243.05859375 100.87890625 C-242.07803119 99.89901947 -241.09732041 98.91928099 -240.11647034 97.93968201 C-238.07349787 95.8981736 -236.03231831 93.85489434 -233.99243164 91.81030273 C-231.39830134 89.21047596 -228.79970566 86.61516627 -226.1997366 84.02118015 C-224.17742175 82.00250604 -222.1575281 79.98142267 -220.13832283 77.9596386 C-218.72233754 76.54267676 -217.30436485 75.12770183 -215.88633728 73.71278381 C-211.40435138 69.21464401 -207.04238074 64.67177541 -202.91371155 59.84580994 C-187.49998748 41.8781348 -162.79946385 30.01090095 -139.4375 27.125 C-137.40051693 27.06498746 -135.36200822 27.04473374 -133.32421875 27.0625 C-132.30392578 27.06894531 -131.28363281 27.07539062 -130.23242188 27.08203125 C-128.14061841 27.11095625 -126.04903997 27.17146342 -123.95898438 27.26171875 C-120.8372993 27.2498115 -118.39759691 27.12991002 -115.4375 26.125 C-112.6912127 23.11850155 -111.13540749 19.79696131 -109.4375 16.125 C-97.53185973 -0.8698985 -80.74234327 -11.1769787 -60.5859375 -15.484375 C-38.56807721 -18.21611945 -17.7683668 -13.56657372 0 0 Z " fill="#FCC854" transform="translate(463.4375,36.875)"/>
<path d="M0 0 C6.34610133 5.01966212 13.06155805 10.47827834 16.15625 18.1171875 C18.56316175 23.65928558 18.56316175 23.65928558 22.796875 27.76171875 C28.53832708 29.21367556 34.53306823 28.76190085 40.41015625 28.6953125 C67.62567241 28.49462623 91.88588793 43.29129848 110.74609375 61.66015625 C112.10960322 63.01413069 113.45588387 64.38543838 114.796875 65.76171875 C113.806875 67.74171875 113.806875 67.74171875 112.796875 69.76171875 C111.86875 68.95734375 110.940625 68.15296875 109.984375 67.32421875 C108.58920094 66.13594425 107.19328262 64.94854338 105.796875 63.76171875 C104.98605469 63.06175781 104.17523438 62.36179687 103.33984375 61.640625 C84.78612459 45.96639959 59.33726825 32.98349227 34.30859375 35.0625 C29.94568085 35.40316902 26.12490478 35.56863956 21.796875 34.76171875 C19.09983032 32.06467407 17.86786815 29.54659457 16.32421875 26.0703125 C13.85615116 20.72388475 9.92340197 16.88824572 5.796875 12.76171875 C4.84167969 11.80652344 4.84167969 11.80652344 3.8671875 10.83203125 C-10.93684906 -2.98916471 -29.99300936 -7.74834508 -49.78125 -7.453125 C-69.06773756 -6.78102013 -86.92554562 2.27295823 -100.078125 16.19921875 C-111.31648922 29.75136384 -116.24592873 44.59555504 -119.203125 61.76171875 C-119.533125 61.76171875 -119.863125 61.76171875 -120.203125 61.76171875 C-121.53193094 44.33959642 -114.81461772 27.05855234 -104.328125 13.32421875 C-77.59898772 -17.60077148 -33.58896523 -23.4713135 0 0 Z " fill="#97CB80" transform="translate(141.203125,35.23828125)"/>
<path d="M0 0 C1.3921875 1.2065625 1.3921875 1.2065625 2.8125 2.4375 C3.45703125 2.98535156 4.1015625 3.53320312 4.765625 4.09765625 C6.32747611 5.4274141 7.87876742 6.76963017 9.421875 8.12109375 C26.19891033 22.44113722 51.37238421 35.45431431 74.12963867 33.84985352 C75.20048706 33.74048462 75.20048706 33.74048462 76.29296875 33.62890625 C85.93692833 32.90708842 85.93692833 32.90708842 90 34 C92.83925926 36.74058042 94.05600983 39.19439374 95.609375 42.8046875 C97.3414896 46.78465869 99.74183711 49.37940833 102.71484375 52.4765625 C104 54 104 54 104 56 C104.58007812 56.26425781 105.16015625 56.52851563 105.7578125 56.80078125 C108.09178768 58.04909202 109.86107604 59.47527282 111.875 61.1875 C127.50661787 73.50254106 146.45765421 77.41536714 166 76 C181.65076598 74.03986533 195.26225181 67.55126101 207 57 C207.61101562 56.48179687 208.22203125 55.96359375 208.8515625 55.4296875 C223.08008353 42.50057478 228.29803891 24.34258139 231 6 C231.33 6 231.66 6 232 6 C233.27833673 24.74893869 226.37678559 43.57642249 214.109375 57.76953125 C200.51357375 72.1458322 182.76876273 82.37208766 162.6015625 83.23828125 C140.15643501 83.74408694 120.57730934 77.7400715 104 62 C100.38407485 58.48572737 97.55375717 55.36688912 95.640625 50.64453125 C93.23371325 45.10243317 93.23371325 45.10243317 89 41 C83.25854792 39.54804319 77.26380677 39.9998179 71.38671875 40.06640625 C44.29275107 40.26619623 20.08809399 25.58550299 1.2734375 7.32421875 C0.1691785 6.22921332 -0.91853028 5.11751871 -2 4 C-1.34 2.68 -0.68 1.36 0 0 Z " fill="#D93427" transform="translate(259,408)"/>
<path d="M0 0 C0.33 0 0.66 0 1 0 C1.48019629 2.85399683 1.95918577 5.70818766 2.4375 8.5625 C2.57220703 9.36236328 2.70691406 10.16222656 2.84570312 10.98632812 C3.62621829 15.65038214 4.35235992 20.31561302 5 25 C4.34 25 3.68 25 3 25 C0.70032804 16.51311539 -0.42781312 8.79393628 0 0 Z " fill="#2B9BCC" transform="translate(21,414)"/>
</svg>
