<?xml version="1.0" standalone="no"?>
<!DOCTYPE svg PUBLIC "-//W3C//DTD SVG 20010904//EN"
 "http://www.w3.org/TR/2001/REC-SVG-20010904/DTD/svg10.dtd">
<svg version="1.0" xmlns="http://www.w3.org/2000/svg"
 width="512.000000pt" height="512.000000pt" viewBox="0 0 512.000000 512.000000"
 preserveAspectRatio="xMidYMid meet">

<g transform="translate(0.000000,512.000000) scale(0.100000,-0.100000)"
fill="#000000" stroke="none">
<path d="M1733 4952 c-93 -33 -168 -111 -193 -202 -5 -19 -10 -128 -10 -242
l0 -208 -210 0 -210 0 0 105 c0 70 -5 117 -14 140 -58 139 -220 199 -353 132
-101 -52 -143 -136 -143 -288 l0 -87 -112 -4 c-94 -3 -121 -7 -162 -27 -63
-31 -116 -84 -147 -147 l-24 -49 0 -1645 0 -1645 21 -46 c31 -67 78 -114 146
-149 l61 -30 1142 0 1143 0 4 -123 c4 -100 8 -130 26 -164 27 -52 82 -98 136
-112 29 -9 272 -11 871 -9 913 3 853 -1 919 65 53 52 66 95 66 224 l0 116 43
7 c84 14 168 83 209 171 l23 50 3 842 c2 834 2 843 -18 863 -13 13 -33 20 -59
20 -75 0 -71 55 -71 -858 0 -668 -2 -818 -14 -845 -16 -37 -61 -82 -93 -92
-20 -6 -23 -3 -23 23 0 16 -9 63 -20 106 -59 231 -239 410 -465 462 -114 26
-117 27 -148 67 l-31 37 46 48 c60 61 102 130 127 206 24 70 101 523 101 588
0 110 -54 234 -139 319 -63 63 -131 101 -218 124 -70 18 -423 21 -505 4 -185
-39 -327 -191 -359 -387 -14 -83 -9 -128 47 -436 39 -221 75 -309 164 -409
l52 -57 -34 -40 c-18 -21 -42 -41 -53 -44 -11 -2 -45 -9 -75 -15 -184 -38
-346 -164 -431 -336 -37 -76 -68 -188 -69 -247 l0 -28 -1125 0 c-928 0 -1131
2 -1158 14 -42 17 -85 68 -92 109 -3 18 -4 627 -3 1354 l3 1321 375 -234 c549
-343 526 -335 1056 -341 l372 -5 4 -131 c3 -128 5 -135 40 -210 65 -137 188
-231 336 -259 131 -24 302 32 394 129 96 103 128 195 128 364 l0 107 373 4
c365 4 374 5 471 31 140 38 217 79 611 326 l350 219 5 -325 c5 -307 6 -325 24
-339 29 -21 82 -18 106 6 20 20 21 29 18 628 l-3 607 -24 49 c-31 63 -90 122
-150 149 -35 16 -72 22 -158 25 l-113 4 0 79 c0 107 -16 172 -54 222 -112 147
-344 129 -428 -32 -26 -49 -28 -63 -28 -162 l0 -109 -209 0 -210 0 -3 228 c-3
213 -4 230 -26 269 -35 66 -79 110 -140 140 l-57 28 -790 2 c-738 2 -793 1
-842 -15z m1622 -152 c26 -13 49 -34 63 -59 21 -36 22 -52 22 -240 l0 -201
-880 0 -880 0 0 201 c0 188 1 204 22 240 13 24 37 46 62 59 40 20 59 20 795
20 734 0 756 -1 796 -20z m-2424 -279 c28 -28 29 -33 29 -125 l0 -96 -105 0
-105 0 0 79 c0 127 27 170 108 171 35 0 49 -6 73 -29z m3394 13 c33 -21 45
-64 45 -155 l0 -79 -110 0 -110 0 0 68 c0 87 14 136 47 162 31 24 94 27 128 4z
m421 -410 c66 -49 69 -58 72 -258 l3 -183 -413 -259 c-259 -162 -443 -271
-493 -291 -135 -54 -217 -63 -581 -63 l-324 0 0 98 c0 160 -34 254 -128 355
-56 59 -164 114 -255 130 -170 29 -363 -62 -454 -214 -44 -74 -63 -155 -63
-272 l0 -99 -367 4 c-366 4 -369 5 -456 31 -49 15 -107 37 -130 48 -23 12
-225 136 -449 276 l-408 255 0 169 c0 174 6 207 43 248 49 53 -82 50 2229 48
l2147 -2 27 -21z m-2060 -643 c61 -28 129 -100 153 -167 19 -50 21 -77 21
-329 0 -316 -6 -349 -83 -427 -63 -65 -126 -92 -217 -92 -91 0 -154 27 -217
92 -77 78 -83 112 -83 426 0 294 4 320 55 398 30 46 106 98 165 115 57 16 149
9 206 -16z m1276 -948 c61 -28 129 -91 155 -145 40 -82 40 -83 -21 -124 -70
-46 -126 -54 -182 -26 -43 22 -109 90 -136 140 -35 65 -106 52 -138 -25 -31
-75 -50 -105 -94 -151 -64 -68 -106 -86 -206 -86 l-84 -1 -13 75 c-26 147 16
253 129 325 62 39 105 44 328 42 197 -2 219 -4 262 -24z m-195 -393 c88 -77
231 -102 321 -56 32 16 32 16 32 -6 0 -13 -13 -101 -30 -196 -34 -195 -55
-248 -129 -322 -25 -25 -73 -60 -106 -76 -55 -27 -69 -29 -170 -29 -98 0 -116
3 -167 27 -126 59 -206 171 -233 328 -8 47 -17 97 -21 113 l-6 27 70 0 c140 0
275 69 352 179 19 28 37 50 38 51 2 0 24 -18 49 -40z m-207 -836 c91 -24 189
-17 315 20 15 5 28 -4 54 -35 l34 -41 -139 -139 -139 -139 -137 137 c-76 76
-138 140 -138 143 0 3 14 22 31 43 22 26 37 36 48 32 9 -4 41 -13 71 -21z
m-106 -319 c164 -169 195 -196 221 -196 26 0 57 28 222 198 l191 198 55 -12
c165 -35 301 -158 358 -324 18 -54 22 -94 27 -260 5 -217 -2 -263 -45 -280
-13 -5 -71 -9 -129 -9 l-104 0 0 179 c0 175 -1 180 -22 195 -32 23 -81 20
-104 -5 -17 -19 -19 -41 -22 -195 l-3 -174 -424 0 -423 0 -4 174 c-3 199 -10
216 -78 216 -68 0 -75 -17 -78 -216 l-4 -174 -108 0 c-159 0 -154 -7 -158 215
-2 97 2 209 8 248 28 189 162 345 345 403 79 25 74 28 279 -181z"/>
<path d="M564 2325 c-25 -25 -26 -28 -22 -151 3 -118 4 -127 27 -145 30 -25
72 -24 99 1 20 19 22 30 22 150 0 127 0 129 -26 149 -36 28 -70 26 -100 -4z"/>
<path d="M582 1830 c-12 -5 -27 -21 -32 -35 -6 -15 -10 -156 -10 -334 0 -351
5 -382 67 -443 72 -70 56 -68 613 -68 487 0 501 1 520 20 30 30 27 83 -6 109
-26 21 -36 21 -509 21 -460 0 -484 1 -506 19 l-24 19 -3 331 -3 330 -26 21
c-28 22 -45 24 -81 10z"/>
<path d="M1956 1079 c-33 -26 -36 -79 -6 -109 19 -19 33 -20 219 -20 179 0
201 2 222 19 32 26 32 86 0 112 -21 17 -43 19 -216 19 -179 0 -194 -1 -219
-21z"/>
</g>
</svg>
