<?xml version="1.0" standalone="no"?>
<!DOCTYPE svg PUBLIC "-//W3C//DTD SVG 20010904//EN"
 "http://www.w3.org/TR/2001/REC-SVG-20010904/DTD/svg10.dtd">
<svg version="1.0" xmlns="http://www.w3.org/2000/svg"
 width="512.000000pt" height="512.000000pt" viewBox="0 0 512.000000 512.000000"
 preserveAspectRatio="xMidYMid meet">

<g transform="translate(0.000000,512.000000) scale(0.100000,-0.100000)"
fill="#000000" stroke="none">
<path d="M562 4557 l-562 -562 0 -1998 0 -1997 2453 0 c2754 0 2510 -7 2592
75 80 79 76 10 73 1180 -3 998 -4 1042 -22 1078 -24 49 -67 92 -120 120 -39
21 -53 22 -363 25 l-322 3 -3 247 -3 247 -27 41 c-54 83 -135 124 -245 124
l-53 0 0 990 0 990 -1418 0 -1417 0 -563 -563z m3238 -512 l0 -905 -548 0
c-605 0 -612 -1 -686 -62 -21 -17 -49 -54 -62 -82 -23 -49 -24 -60 -24 -283
l0 -233 -298 0 c-338 0 -375 -6 -443 -67 -22 -20 -50 -55 -62 -77 l-22 -41 0
-1062 0 -1063 -742 0 -743 0 0 1855 0 1855 80 0 80 0 0 -290 0 -290 1570 0
1570 0 0 338 0 338 52 34 c105 70 138 198 80 312 l-27 55 27 52 c63 121 16
268 -107 334 -37 21 -56 22 -283 25 l-242 3 2 -413 3 -413 163 -3 162 -2 0
-245 0 -245 -1400 0 -1400 0 0 205 0 205 370 0 370 0 0 535 0 535 1280 0 1280
0 0 -905z m-2730 395 l0 -390 -392 0 -393 0 390 390 c214 215 391 390 392 390
2 0 3 -175 3 -390z m2355 174 c24 -10 46 -60 39 -89 -3 -14 -18 -34 -31 -45
-23 -18 -41 -20 -159 -20 l-134 0 0 80 0 80 134 0 c74 0 142 -3 151 -6z m0
-330 c18 -7 45 -55 45 -79 0 -9 -13 -30 -29 -46 l-29 -29 -136 0 -136 0 0 80
0 80 134 0 c74 0 142 -3 151 -6z m660 -1320 c38 -15 45 -54 45 -274 l0 -210
-85 0 -85 0 0 165 0 165 -575 0 -575 0 0 -165 0 -165 -85 0 -85 0 0 204 c0
207 6 248 38 272 14 11 156 13 704 14 377 0 694 -3 703 -6z m-285 -404 l0 -80
-415 0 -415 0 0 80 0 80 415 0 415 0 0 -80z m1111 -260 c10 -6 19 -16 19 -23
0 -7 -99 -261 -221 -564 l-221 -553 -384 0 -384 0 0 80 0 80 -330 0 -330 0 0
-80 0 -80 -388 0 -388 0 -224 561 c-216 538 -224 561 -205 575 16 12 248 14
1528 14 1020 0 1515 -3 1528 -10z m-2906 -887 l169 -423 443 0 443 0 0 -80 0
-80 330 0 330 0 0 80 0 80 439 0 439 0 176 438 175 437 1 -824 0 -825 -22 -23
-21 -23 -1521 0 -1520 0 -23 22 -23 21 0 826 c0 454 4 819 9 811 4 -8 84 -205
176 -437z m1545 -338 l0 -85 -165 0 -165 0 0 85 0 85 165 0 165 0 0 -85z"/>
<path d="M1490 4705 l0 -85 80 0 80 0 0 -220 0 -221 -25 -24 c-15 -16 -36 -25
-55 -25 -51 0 -80 38 -80 105 l0 55 -86 0 -87 0 5 -72 c5 -83 28 -136 80 -185
94 -90 255 -87 345 8 62 66 67 90 71 347 l4 232 79 0 79 0 0 85 0 85 -245 0
-245 0 0 -85z"/>
<path d="M2388 4776 c-98 -29 -181 -105 -217 -201 -20 -54 -22 -74 -19 -215 3
-141 5 -160 28 -205 55 -113 171 -186 296 -187 104 0 179 34 252 117 64 73 77
124 77 300 0 141 -2 153 -26 206 -69 147 -241 228 -391 185z m173 -179 c18
-12 44 -38 57 -57 22 -33 23 -42 20 -172 -3 -148 -9 -166 -70 -211 -66 -49
-184 -23 -230 51 -20 32 -23 53 -26 157 -3 109 -1 124 20 165 32 61 77 90 143
90 38 0 61 -6 86 -23z"/>
<path d="M330 3055 l0 -86 83 3 82 3 0 80 0 80 -82 3 -83 3 0 -86z"/>
<path d="M660 3055 l0 -85 825 0 825 0 0 85 0 85 -825 0 -825 0 0 -85z"/>
<path d="M330 2725 l0 -85 990 0 990 0 0 85 0 85 -990 0 -990 0 0 -85z"/>
<path d="M330 2395 l0 -85 580 0 581 0 -3 83 -3 82 -577 3 -578 2 0 -85z"/>
<path d="M330 2065 l0 -85 580 0 581 0 -3 83 -3 82 -577 3 -578 2 0 -85z"/>
<path d="M330 1735 l0 -85 580 0 581 0 -3 83 -3 82 -577 3 -578 2 0 -85z"/>
<path d="M330 1405 l0 -85 165 0 165 0 0 85 0 85 -165 0 -165 0 0 -85z"/>
<path d="M830 1405 l0 -85 330 0 331 0 -3 83 -3 82 -327 3 -328 2 0 -85z"/>
<path d="M330 1075 l0 -85 580 0 581 0 -3 83 -3 82 -577 3 -578 2 0 -85z"/>
<path d="M330 745 l0 -85 580 0 581 0 -3 83 -3 82 -577 3 -578 2 0 -85z"/>
<path d="M330 415 l0 -85 415 0 416 0 -3 83 -3 82 -412 3 -413 2 0 -85z"/>
<path d="M1327 494 c-4 -4 -7 -43 -7 -86 l0 -78 85 0 86 0 -3 83 -3 82 -75 3
c-42 1 -79 0 -83 -4z"/>
</g>
</svg>
